<svg width="64" height="10" viewBox="0 0 64 10" fill="none" xmlns="http://www.w3.org/2000/svg">
<path d="M4.032 2.088C4.12 2.088 4.268 2.096 4.476 2.112C4.684 2.12 4.916 2.156 5.172 2.22C5.428 2.276 5.692 2.368 5.964 2.496C6.244 2.624 6.496 2.808 6.72 3.048C6.944 3.288 7.128 3.592 7.272 3.96C7.424 4.32 7.5 4.764 7.5 5.292C7.5 5.828 7.412 6.3 7.236 6.708C7.068 7.116 6.84 7.456 6.552 7.728C6.272 8 5.952 8.204 5.592 8.34C5.232 8.476 4.864 8.544 4.488 8.544C4.304 8.544 4.116 8.54 3.924 8.532C3.74 8.516 3.58 8.496 3.444 8.472V6.744C3.556 6.784 3.656 6.808 3.744 6.816C3.832 6.816 3.896 6.816 3.936 6.816C4.016 6.816 4.124 6.804 4.26 6.78C4.404 6.748 4.54 6.684 4.668 6.588C4.804 6.484 4.92 6.34 5.016 6.156C5.112 5.964 5.16 5.704 5.16 5.376C5.16 5.008 5.1 4.72 4.98 4.512C4.86 4.304 4.712 4.148 4.536 4.044C4.368 3.94 4.188 3.876 3.996 3.852C3.812 3.828 3.648 3.816 3.504 3.816H2.988V9.396H0.72V2.088H4.032ZM10.8747 9H8.60672V2.088H10.8747V9ZM10.9707 0.0959995C10.9307 0.312 10.8707 0.52 10.7907 0.719999C10.7187 0.912 10.6267 1.08 10.5147 1.224C10.4107 1.368 10.2907 1.484 10.1547 1.572C10.0267 1.652 9.89072 1.692 9.74672 1.692C9.59472 1.692 9.45072 1.652 9.31472 1.572C9.18672 1.484 9.06672 1.368 8.95472 1.224C8.85072 1.08 8.75872 0.912 8.67872 0.719999C8.60672 0.52 8.55072 0.312 8.51072 0.0959995H10.9707ZM18.4898 8.916C18.1618 8.988 17.8218 9.044 17.4698 9.084C17.1178 9.132 16.7138 9.156 16.2578 9.156C15.5938 9.156 14.9978 9.072 14.4698 8.904C13.9418 8.728 13.4898 8.484 13.1138 8.172C12.7458 7.852 12.4618 7.468 12.2618 7.02C12.0698 6.564 11.9738 6.056 11.9738 5.496C11.9738 4.912 12.0698 4.4 12.2618 3.96C12.4538 3.512 12.7178 3.14 13.0538 2.844C13.3978 2.54 13.8018 2.312 14.2658 2.16C14.7298 2.008 15.2378 1.932 15.7898 1.932C16.0298 1.932 16.2858 1.952 16.5578 1.992C16.8298 2.024 17.0978 2.096 17.3618 2.208C17.6338 2.312 17.8898 2.46 18.1298 2.652C18.3698 2.836 18.5778 3.084 18.7538 3.396C18.9378 3.708 19.0738 4.088 19.1618 4.536C19.2578 4.984 19.2898 5.516 19.2578 6.132H14.9858C14.9378 6.06 14.8898 5.964 14.8418 5.844C14.7938 5.724 14.7698 5.58 14.7698 5.412C14.7698 5.276 14.7778 5.156 14.7938 5.052C14.8098 4.948 14.8258 4.864 14.8418 4.8H17.0858C17.0778 4.52 17.0258 4.304 16.9298 4.152C16.8338 4 16.7178 3.888 16.5818 3.816C16.4538 3.744 16.3218 3.7 16.1858 3.684C16.0498 3.668 15.9338 3.66 15.8378 3.66C15.5578 3.66 15.3178 3.708 15.1178 3.804C14.9258 3.892 14.7698 4.016 14.6498 4.176C14.5298 4.328 14.4418 4.508 14.3858 4.716C14.3298 4.924 14.3018 5.148 14.3018 5.388C14.3018 5.62 14.3338 5.856 14.3978 6.096C14.4698 6.336 14.5938 6.556 14.7698 6.756C14.9538 6.948 15.2058 7.108 15.5258 7.236C15.8538 7.364 16.2778 7.428 16.7978 7.428C17.1578 7.428 17.4698 7.4 17.7338 7.344C18.0058 7.28 18.2578 7.204 18.4898 7.116V8.916ZM26.5194 0.0959995V9H24.5514C24.2794 9 23.9754 8.992 23.6394 8.976C23.3034 8.952 22.9634 8.9 22.6194 8.82C22.2754 8.74 21.9394 8.624 21.6114 8.472C21.2834 8.32 20.9914 8.116 20.7354 7.86C20.4874 7.596 20.2874 7.272 20.1354 6.888C19.9834 6.496 19.9074 6.024 19.9074 5.472C19.9074 4.832 20.0234 4.284 20.2554 3.828C20.4874 3.372 20.7874 3.004 21.1554 2.724C21.5234 2.436 21.9394 2.228 22.4034 2.1C22.8674 1.972 23.3314 1.916 23.7954 1.932V3.66C23.5794 3.668 23.3754 3.712 23.1834 3.792C22.9994 3.872 22.8354 3.992 22.6914 4.152C22.5554 4.304 22.4474 4.492 22.3674 4.716C22.2874 4.94 22.2474 5.196 22.2474 5.484C22.2474 5.908 22.3234 6.244 22.4754 6.492C22.6354 6.732 22.8234 6.912 23.0394 7.032C23.2554 7.152 23.4754 7.224 23.6994 7.248C23.9314 7.272 24.1154 7.28 24.2514 7.272V0.0959995H26.5194ZM34.0672 2.088C34.1552 2.088 34.3032 2.096 34.5112 2.112C34.7192 2.12 34.9512 2.156 35.2072 2.22C35.4632 2.276 35.7272 2.368 35.9992 2.496C36.2792 2.624 36.5312 2.808 36.7552 3.048C36.9792 3.288 37.1632 3.592 37.3072 3.96C37.4592 4.32 37.5352 4.764 37.5352 5.292C37.5352 5.828 37.4472 6.3 37.2712 6.708C37.1032 7.116 36.8752 7.456 36.5872 7.728C36.3072 8 35.9872 8.204 35.6272 8.34C35.2672 8.476 34.8992 8.544 34.5232 8.544C34.3392 8.544 34.1512 8.54 33.9592 8.532C33.7752 8.516 33.6152 8.496 33.4792 8.472V6.744C33.5912 6.784 33.6912 6.808 33.7792 6.816C33.8672 6.816 33.9312 6.816 33.9712 6.816C34.0512 6.816 34.1592 6.804 34.2952 6.78C34.4392 6.748 34.5752 6.684 34.7032 6.588C34.8392 6.484 34.9552 6.34 35.0512 6.156C35.1472 5.964 35.1952 5.704 35.1952 5.376C35.1952 5.008 35.1352 4.72 35.0152 4.512C34.8952 4.304 34.7472 4.148 34.5712 4.044C34.4032 3.94 34.2232 3.876 34.0312 3.852C33.8472 3.828 33.6832 3.816 33.5392 3.816H33.0232V9.396H30.7552V2.088H34.0672ZM40.9099 9H38.6419V2.088H40.9099V9ZM41.0059 0.0959995C40.9659 0.312 40.9059 0.52 40.8259 0.719999C40.7539 0.912 40.6619 1.08 40.5499 1.224C40.4459 1.368 40.3259 1.484 40.1899 1.572C40.0619 1.652 39.9259 1.692 39.7819 1.692C39.6299 1.692 39.4859 1.652 39.3499 1.572C39.2219 1.484 39.1019 1.368 38.9899 1.224C38.8859 1.08 38.7939 0.912 38.7139 0.719999C38.6419 0.52 38.5859 0.312 38.5459 0.0959995H41.0059ZM45.657 2.088C45.745 2.088 45.893 2.096 46.101 2.112C46.309 2.12 46.541 2.156 46.797 2.22C47.053 2.276 47.317 2.368 47.589 2.496C47.869 2.624 48.121 2.808 48.345 3.048C48.569 3.288 48.753 3.592 48.897 3.96C49.049 4.32 49.125 4.764 49.125 5.292C49.125 5.828 49.037 6.3 48.861 6.708C48.693 7.116 48.465 7.456 48.177 7.728C47.897 8 47.577 8.204 47.217 8.34C46.857 8.476 46.489 8.544 46.113 8.544C45.929 8.544 45.741 8.54 45.549 8.532C45.365 8.516 45.205 8.496 45.069 8.472V6.744C45.181 6.784 45.281 6.808 45.369 6.816C45.457 6.816 45.521 6.816 45.561 6.816C45.641 6.816 45.749 6.804 45.885 6.78C46.029 6.748 46.165 6.684 46.293 6.588C46.429 6.484 46.545 6.34 46.641 6.156C46.737 5.964 46.785 5.704 46.785 5.376C46.785 5.008 46.725 4.72 46.605 4.512C46.485 4.304 46.337 4.148 46.161 4.044C45.993 3.94 45.813 3.876 45.621 3.852C45.437 3.828 45.273 3.816 45.129 3.816H44.613V9.396H42.345V2.088H45.657ZM56.4117 8.916C56.0837 8.988 55.7437 9.044 55.3917 9.084C55.0397 9.132 54.6357 9.156 54.1797 9.156C53.5157 9.156 52.9197 9.072 52.3917 8.904C51.8637 8.728 51.4117 8.484 51.0357 8.172C50.6677 7.852 50.3837 7.468 50.1837 7.02C49.9917 6.564 49.8957 6.056 49.8957 5.496C49.8957 4.912 49.9917 4.4 50.1837 3.96C50.3757 3.512 50.6397 3.14 50.9757 2.844C51.3197 2.54 51.7237 2.312 52.1877 2.16C52.6517 2.008 53.1597 1.932 53.7117 1.932C53.9517 1.932 54.2077 1.952 54.4797 1.992C54.7517 2.024 55.0197 2.096 55.2837 2.208C55.5557 2.312 55.8117 2.46 56.0517 2.652C56.2917 2.836 56.4997 3.084 56.6757 3.396C56.8597 3.708 56.9957 4.088 57.0837 4.536C57.1797 4.984 57.2117 5.516 57.1797 6.132H52.9077C52.8597 6.06 52.8117 5.964 52.7637 5.844C52.7157 5.724 52.6917 5.58 52.6917 5.412C52.6917 5.276 52.6997 5.156 52.7157 5.052C52.7317 4.948 52.7477 4.864 52.7637 4.8H55.0077C54.9997 4.52 54.9477 4.304 54.8517 4.152C54.7557 4 54.6397 3.888 54.5037 3.816C54.3757 3.744 54.2437 3.7 54.1077 3.684C53.9717 3.668 53.8557 3.66 53.7597 3.66C53.4797 3.66 53.2397 3.708 53.0397 3.804C52.8477 3.892 52.6917 4.016 52.5717 4.176C52.4517 4.328 52.3637 4.508 52.3077 4.716C52.2517 4.924 52.2237 5.148 52.2237 5.388C52.2237 5.62 52.2557 5.856 52.3197 6.096C52.3917 6.336 52.5157 6.556 52.6917 6.756C52.8757 6.948 53.1277 7.108 53.4477 7.236C53.7757 7.364 54.1997 7.428 54.7197 7.428C55.0797 7.428 55.3917 7.4 55.6557 7.344C55.9277 7.28 56.1797 7.204 56.4117 7.116V8.916ZM60.8893 2.088C61.0093 2.072 61.1293 2.06 61.2493 2.052C61.3693 2.044 61.4973 2.04 61.6333 2.04C62.0493 2.04 62.3933 2.112 62.6653 2.256C62.9453 2.4 63.1653 2.58 63.3253 2.796C63.4933 3.012 63.6093 3.248 63.6733 3.504C63.7453 3.76 63.7813 4 63.7813 4.224C63.7813 4.432 63.7573 4.652 63.7093 4.884C63.6693 5.108 63.6053 5.324 63.5173 5.532H61.5253C61.5493 5.444 61.5733 5.324 61.5973 5.172C61.6293 5.012 61.6453 4.852 61.6453 4.692C61.6453 4.492 61.6173 4.332 61.5613 4.212C61.5133 4.092 61.4533 4.004 61.3813 3.948C61.3173 3.892 61.2493 3.856 61.1773 3.84C61.1053 3.824 61.0533 3.816 61.0213 3.816H60.8893V2.088ZM60.4333 9H58.1653V2.088H60.4333V9Z" fill="#005FF1"/>
</svg>
